<svg width="200" height="160" viewBox="0 0 200 160" fill="none" xmlns="http://www.w3.org/2000/svg">
<path d="M180 160H20C8.9543 160 0 151.046 0 140V20C0 8.9543 8.9543 0 20 0H180C191.046 0 200 8.9543 200 20V140C200 151.046 191.046 160 180 160ZM20 20V140H180V20H20ZM160 120H100V100H160V120ZM54.14 120L40 105.86L62.93 82.93L40 60L54.14 45.86L91.21 82.93L54.15 120H54.14Z" fill="url(#paint0_linear)"/>
<defs>
<linearGradient id="paint0_linear" x1="100" y1="0" x2="100" y2="160" gradientUnits="userSpaceOnUse">
<stop stop-color="#0038C9"/>
<stop offset="0.494792" stop-color="#4E3FCE"/>
<stop offset="1" stop-color="#CE3F3F"/>
</linearGradient>
</defs>
</svg>
