<svg width="1472" height="550" xmlns="http://www.w3.org/2000/svg" xmlns:xlink="http://www.w3.org/1999/xlink" overflow="hidden"><defs><clipPath id="clip0"><rect x="330" y="773" width="1472" height="550"/></clipPath><linearGradient x1="406.651" y1="766.162" x2="779.952" y2="1139.46" gradientUnits="userSpaceOnUse" spreadMethod="reflect" id="fill1"><stop offset="0" stop-color="#0070C0"/><stop offset="0.14" stop-color="#0070C0"/><stop offset="0.5" stop-color="#7900D6"/><stop offset="0.85" stop-color="#C00000"/><stop offset="1" stop-color="#C00000"/></linearGradient></defs><g clip-path="url(#clip0)" transform="translate(-330 -773)"><text font-family="Gill Sans MT,Gill Sans MT_MSFontService,sans-serif" font-weight="400" font-size="220" transform="matrix(1 0 0 1 775.442 1144)">LAUNCH</text><path d="M498.837 1025.1C498.203 1025.13 497.482 1025.23 496.675 1025.41 495.06 1025.76 493.48 1026.22 491.934 1026.78L488.833 1028.15 489.225 1029.11C489.996 1030.52 491.054 1032.14 492.4 1033.98L498.585 1041.9 499.225 1040.33C501.304 1035.51 502.296 1031.06 502.2 1026.98 501.859 1025.66 500.738 1025.03 498.837 1025.1ZM624 1024.38C622.317 1025.63 620.733 1027.39 619.25 1029.66L619.02 1030.01 619.525 1029.91C620.415 1029.75 621.282 1029.57 622.128 1029.35L624.327 1028.67ZM490.839 1020.26 490.297 1020.45C489.959 1020.65 489.719 1020.89 489.575 1021.18 489.287 1021.76 489.162 1022.36 489.2 1022.98L489.2 1023.44 490.325 1021.22ZM498.2 1003.78C496.231 1005.04 494.353 1006.35 492.566 1007.71L492.141 1008.06 492.353 1008.31 495.382 1011.67 495.556 1011.34C496.337 1009.81 497.031 1008.41 497.637 1007.13 498.85 1004.56 499.037 1003.44 498.2 1003.78ZM487.725 956.831 486.769 957.205C483.405 958.51 481.081 959.369 479.8 959.782L480 959.582 474.6 961.982C470 963.982 465.4 965.782 460.8 967.382 468.217 978.594 476.483 989.619 485.6 1000.46L489.166 1004.6 492.3 1000.36C497.133 994.077 502.367 987.886 508 981.782 507.354 979.84 505.646 978.523 502.875 977.832 500.104 977.14 496.546 976.723 492.2 976.582 492.046 976.353 492.799 975.832 494.459 975.019 496.12 974.205 498.014 973.269 500.141 972.211 502.268 971.153 503.954 970.143 505.2 969.182 506.686 967.905 507.002 966.703 506.148 965.574 505.294 964.446 503.951 963.451 502.118 962.589 500.286 961.727 498.647 961.058 497.2 960.582 494.408 959.627 491.942 958.686 489.8 957.757ZM689.057 947.226 688.252 947.448C685.817 948.082 682.849 948.859 679.348 949.782 675.847 950.704 672.597 951.704 669.6 952.782 666.852 953.822 665.193 954.585 664.622 955.07 664.052 955.556 663.859 955.919 664.044 956.159 664.23 956.4 664.081 956.674 663.6 956.982 663.337 957.377 663.662 958.336 664.575 959.857 665.487 961.377 666.162 962.286 666.6 962.582 666.549 962.659 665.673 962.837 663.97 963.115 662.268 963.393 660.443 963.704 658.496 964.048 656.549 964.393 655.184 964.704 654.4 964.982 652.504 965.632 650.746 966.432 649.125 967.382 647.504 968.332 646.596 969.132 646.4 969.782 646.447 970.054 647.198 970.331 648.652 970.611 650.106 970.891 651.583 971.138 653.081 971.352 654.58 971.566 655.42 971.709 655.6 971.782 654.512 972.577 652.487 973.236 649.525 973.757 646.562 974.277 643.787 974.686 641.2 974.982 641.192 975.277 641.158 975.536 641.1 975.757 641.042 975.977 641.008 976.186 641 976.382 640.445 978.755 639.467 983.134 638.066 989.519 637.014 994.308 635.91 999.473 634.751 1005.01L633.615 1010.49 639.781 1009.57C648.202 1008.22 656.742 1006.56 665.4 1004.58L673.2 1002.78C673.542 999.757 673.508 997.257 673.1 995.282 672.692 993.307 672.258 992.007 671.8 991.382 670.912 990.915 669.337 991.548 667.075 993.282 664.812 995.015 662.987 996.448 661.6 997.582 661.295 996.973 662.105 994.657 664.03 990.633 665.954 986.61 668.023 982.531 670.237 978.396 672.451 974.262 673.838 971.724 674.4 970.782 677.167 965.952 680.483 960.461 684.35 954.307ZM616.4 916.982C611.946 921.419 607.054 926.294 601.725 931.607 596.396 936.919 590.954 942.444 585.4 948.182 589.392 947.986 593.308 947.827 597.15 947.707 600.992 947.586 604.808 947.477 608.6 947.382 609.9 941.852 611.2 936.511 612.5 931.357 613.8 926.202 615.1 921.411 616.4 916.982ZM762.8 907.782C757.241 914.714 750.981 923.583 744.022 934.389 737.063 945.195 730.359 955.946 723.911 966.641 717.463 977.336 712.226 985.983 708.2 992.582 718.517 989.102 728.633 985.011 738.55 980.307 748.467 975.602 758.083 970.161 767.4 963.982 774.554 959.211 780.196 954.302 784.325 949.257 788.454 944.211 791.346 938.852 793 933.182 794.304 929.532 793.696 925.332 791.175 920.582 788.654 915.832 782.396 912.032 772.4 909.182 769.6 908.615 766.4 908.148 762.8 907.782ZM728.8 907.582C715.483 908.34 702.417 909.173 689.6 910.082 679.987 910.763 671.584 911.627 664.391 912.674L657.859 913.739 657.115 916.057C656.521 917.962 655.924 919.928 655.325 921.957 652.929 930.069 650.621 938.344 648.4 946.782 657.412 946.544 665.987 946.319 674.125 946.107 680.228 945.947 685.03 945.921 688.532 946.029L689.811 946.093 696.4 936.182C695.558 935.465 694.842 934.748 694.25 934.032 693.658 933.315 693.442 932.698 693.6 932.182 695.271 931.402 697.179 930.211 699.325 928.607 701.471 927.002 703.429 925.461 705.2 923.982 707.017 921.573 708.733 919.49 710.35 917.732 711.967 915.973 713.383 914.59 714.6 913.582 715.829 913.632 717.671 913.382 720.125 912.832 722.579 912.282 725.471 910.532 728.8 907.582ZM472.8 906.182C468.967 906.215 464.233 906.348 458.6 906.582 454.879 911.311 450.921 916.652 446.725 922.607 442.529 928.561 438.221 934.952 433.8 941.782 443.977 939.301 453.135 936.284 461.274 932.73 469.414 929.175 475.875 925.566 480.659 921.9 485.443 918.235 487.89 914.995 488 912.182 487.894 910.285 486.906 908.922 485.037 908.093 483.168 907.263 481.054 906.745 478.696 906.537 476.338 906.33 474.373 906.211 472.8 906.182ZM475.2 852.982C474.279 855.09 473.271 857.423 472.175 859.982 471.079 862.54 470.021 865.273 469 868.182 468.692 869.202 468.458 870.211 468.3 871.207 468.142 872.202 468.108 873.061 468.2 873.782 472.667 873.886 477.683 874.327 483.25 875.107 488.817 875.886 494.533 876.977 500.4 878.382 506.992 878.994 513.608 879.219 520.25 879.057 526.892 878.894 533.008 878.269 538.6 877.182 536.058 878.682 532.992 880.082 529.4 881.382 525.808 882.682 521.942 883.882 517.8 884.982 522.475 887.561 526.225 890.852 529.05 894.857 531.875 898.861 533.325 903.702 533.4 909.382 533.308 914.711 531.292 920.052 527.35 925.407 523.408 930.761 518.092 935.952 511.4 940.982 512.712 941.707 514.387 942.107 516.425 942.182 518.462 942.257 520.787 941.857 523.4 940.982 519.291 943.266 514.131 945.764 507.918 948.478 504.812 949.835 501.806 951.119 498.9 952.332L492.252 955.033 499.096 954.189C501.927 953.861 504.295 953.591 506.2 953.382 510.125 952.973 514.675 952.54 519.85 952.082 525.025 951.623 530.675 951.19 536.8 950.782 540.404 947.073 544.046 943.39 547.725 939.732 551.404 936.073 555.096 932.49 558.8 928.982L568 909.982C567.996 911.398 568.004 912.965 568.025 914.682 568.046 916.398 568.104 918.165 568.2 919.982 572.733 915.765 577.067 911.848 581.2 908.232 585.333 904.615 589.067 901.398 592.4 898.582 601.408 890.977 609.342 884.336 616.2 878.657 623.058 872.977 628.192 868.886 631.6 866.382 632.353 866.951 631.869 868.568 630.148 871.233 628.427 873.899 626.551 876.598 624.518 879.33 622.486 882.062 621.38 883.812 621.2 884.582 620.983 885.102 620.967 885.511 621.15 885.807 621.333 886.102 621.817 886.161 622.6 885.982 624.739 885.232 627.394 883.709 630.563 881.411 633.732 879.114 636.579 876.938 639.104 874.885 641.628 872.832 642.994 871.798 643.2 871.782 643.704 871.89 644.546 871.673 645.725 871.132 646.904 870.59 648.396 869.673 650.2 868.382 651.575 867.352 652.825 866.361 653.95 865.407 655.075 864.452 658.025 861.911 662.8 857.782 663.037 857.857 662.762 858.757 661.975 860.482 661.187 862.207 660.262 864.307 659.2 866.782 658.054 869.902 657.496 872.311 657.525 874.007 657.554 875.702 657.846 876.561 658.4 876.582 658.687 876.673 658.962 877.09 659.225 877.832 659.487 878.573 659.812 879.09 660.2 879.382 661.021 879.657 661.329 880.407 661.125 881.632 660.921 882.857 661.279 883.507 662.2 883.582 662.894 883.264 664.106 882.321 665.837 880.752 667.568 879.183 669.254 877.691 670.896 876.278 672.538 874.864 673.573 874.232 674 874.382 671.579 878.936 669.521 883.177 667.825 887.107 666.129 891.036 664.321 895.527 662.4 900.582 661.24 903.65 660.07 906.966 658.891 910.529L658.416 912.005 659.8 911.182C661.389 910.421 663.967 909.431 667.533 908.211 671.1 906.991 674.522 905.705 677.8 904.352 681.078 902.999 683.078 901.742 683.8 900.582 684.017 899.792 683.605 899.127 682.563 898.589 681.521 898.051 680.546 897.579 679.637 897.174 678.728 896.769 678.583 896.372 679.2 895.982 680.085 895.842 682.67 895.032 686.956 893.552 691.241 892.072 695.515 890.358 699.778 888.411 704.041 886.464 706.581 884.721 707.4 883.182 707.591 882.183 706.542 881.314 704.252 880.574 701.962 879.835 699.283 879.217 696.215 878.722 693.147 878.227 690.542 877.847 688.4 877.582 692.136 876.404 697.353 875.582 704.052 875.115 710.751 874.648 718.116 874.404 726.148 874.382 734.18 874.359 742.064 874.426 749.8 874.582 753.867 871.569 757.883 868.294 761.85 864.757 765.817 861.219 768.733 858.694 770.6 857.182 770.467 857.886 769.283 860.027 767.05 863.607 764.817 867.186 762.333 870.977 759.6 874.982 760.504 874.99 761.396 875.023 762.275 875.082 763.154 875.14 763.996 875.173 764.8 875.182 765.2 874.948 765.6 874.615 766 874.182 771.112 871.699 774.643 869.975 776.593 869.011 778.542 868.047 779.836 867.538 780.474 867.485 781.112 867.432 782.021 867.531 783.2 867.782 781.987 868.569 780.812 869.844 779.675 871.607 778.537 873.369 777.512 875.094 776.6 876.782 780.808 877.49 784.892 878.423 788.85 879.582 792.808 880.74 796.592 882.073 800.2 883.582 803.715 884.648 807.574 885.537 811.778 886.248 815.981 886.959 819.841 887.493 823.356 887.848 826.87 888.204 829.352 888.382 830.8 888.382 830.112 888.932 828.537 889.732 826.075 890.782 823.612 891.832 820.787 892.832 817.6 893.782 824.175 899.007 829.175 905.207 832.6 912.382 836.025 919.557 837.425 927.557 836.8 936.382 836.567 939.148 836.033 941.815 835.2 944.382 835.112 947.177 834.465 950.409 833.259 954.078 832.053 957.747 830.813 961.083 829.541 964.085 828.268 967.088 827.488 968.987 827.2 969.782 826.904 968.79 826.546 967.773 826.125 966.732 825.704 965.69 825.196 964.573 824.6 963.382 818.312 971.248 810.737 978.615 801.875 985.482 793.012 992.348 783.987 998.315 774.8 1003.38 771.833 1004.98 768.567 1006.58 765 1008.18 759.349 1011.05 752.939 1014.67 745.77 1019.05 738.601 1023.43 732.177 1027.36 726.496 1030.85 720.816 1034.34 717.384 1036.18 716.2 1036.38L728.2 1021.78C722.262 1023.79 716.437 1025.68 710.725 1027.46 705.012 1029.24 699.637 1030.88 694.6 1032.38 680.217 1036.77 667.633 1039.94 656.85 1041.91 646.067 1043.87 638.783 1044.09 635 1042.58 636.75 1041.93 639 1041.33 641.75 1040.78 644.5 1040.23 646.85 1039.43 648.8 1038.38 650.017 1037.64 650.983 1036.73 651.7 1035.66 652.417 1034.59 652.183 1033.63 651 1032.78 649.829 1032.11 647.471 1031.71 643.925 1031.58 640.379 1031.46 636.671 1031.46 632.8 1031.58L629.539 1031.61 629.497 1031.84C628.37 1038.23 627.805 1042.61 627.8 1044.98 627.533 1044.87 627.067 1044.14 626.4 1042.81 625.733 1041.47 625.267 1039.59 625 1037.18 624.904 1036.21 624.815 1035.21 624.731 1034.17L624.543 1031.54 622.5 1031.48C621.579 1031.44 620.749 1031.4 620.009 1031.35L618.235 1031.2 617.475 1032.34C617.033 1033 616.742 1033.41 616.6 1033.58 616.172 1033.8 615.895 1032.94 615.77 1031.02 615.646 1029.09 615.443 1026.8 615.163 1024.14L614.685 1021.4 614.292 1021.34C612.725 1021.08 610.894 1020.8 608.8 1020.48L606.072 1020.05 605.825 1020.48C604.646 1022.79 603.704 1024.82 603 1026.58 601.753 1029.52 600.425 1032.8 599.015 1036.43 597.605 1040.07 596.395 1043.23 595.385 1045.93 594.375 1048.63 593.847 1050.05 593.8 1050.18 593.217 1050.27 592.849 1049.12 592.696 1046.73 592.543 1044.34 592.501 1041.8 592.57 1039.1 592.639 1036.4 592.716 1034.63 592.8 1033.78 593.346 1028.88 593.935 1024.11 594.569 1019.45L594.745 1018.27 594.319 1018.21C592.048 1017.83 590.608 1017.55 590 1017.38 589.092 1017.08 588.308 1016.79 587.65 1016.51 586.992 1016.23 586.508 1015.99 586.2 1015.78 587.539 1015.63 589.564 1015.42 592.275 1015.16L595.252 1014.88 596.6 1005.86C598.042 997.036 599.708 988.077 601.6 978.982 593.433 979.99 584.917 981.123 576.05 982.382 567.183 983.64 558.367 984.973 549.6 986.382 546.56 989.946 542.415 994.867 537.162 1001.14 531.91 1007.42 526.39 1014.07 520.6 1021.08 514.81 1028.1 509.59 1034.49 504.938 1040.27 503.774 1041.71 502.699 1043.06 501.712 1044.3L501.065 1045.12 501.766 1046.08C502.453 1047.05 502.931 1047.82 503.2 1048.38 502.743 1048.43 501.838 1048.04 500.485 1047.21L499.788 1046.75 499.014 1047.73C497.391 1049.82 496.12 1051.5 495.2 1052.78 495.502 1051.04 495.989 1049.14 496.659 1047.06L497.361 1045.08 495.081 1043.4C490.583 1039.99 486.173 1036.64 481.852 1033.36 477.531 1030.08 475.18 1028.69 474.8 1029.18 474.858 1030.29 475.542 1031.93 476.85 1034.11 478.158 1036.29 479.142 1037.78 479.8 1038.58 473.27 1035.15 466.263 1029.88 458.778 1022.74 451.293 1015.61 444.107 1007.99 437.222 999.885 430.337 991.777 424.53 984.542 419.8 978.182 418.004 978.49 416.296 978.823 414.675 979.182 413.054 979.54 411.496 979.873 410 980.182 403.544 990.891 397.5 1001.16 391.867 1010.99 386.233 1020.82 381.344 1029.55 377.2 1037.17 373.056 1044.8 369.989 1050.67 368 1054.78 367.122 1054.96 366.767 1053.98 366.933 1051.84 367.1 1049.7 367.456 1047.33 368 1044.72 368.544 1042.12 368.944 1040.2 369.2 1038.98 369.314 1038.33 369.62 1036.57 370.118 1033.71 370.617 1030.86 371.027 1028.04 371.348 1025.25 371.669 1022.46 371.62 1020.84 371.2 1020.38 370.152 1019.94 368.093 1020.58 365.022 1022.31 361.952 1024.03 358.959 1025.91 356.044 1027.92 353.13 1029.94 351.381 1031.16 350.8 1031.58 350.411 1031.66 350.478 1030.89 351 1029.27 351.522 1027.66 352.033 1025.95 352.533 1024.16 353.033 1022.37 353.056 1021.24 352.6 1020.78 351.779 1020.54 350.771 1020.87 349.575 1021.78 348.379 1022.69 347.121 1023.82 345.8 1025.18L339.6 1031.38C339.263 1031.13 339.426 1030.12 340.089 1028.33 340.752 1026.54 341.537 1024.67 342.444 1022.7 343.352 1020.73 344.004 1019.36 344.4 1018.58 346.35 1014.39 349.2 1008.87 352.95 1002.03 356.7 995.19 361.05 987.573 366 979.182 366.225 978.152 366.275 977.161 366.15 976.207 366.025 975.252 365.575 974.511 364.8 973.982 364.168 973.652 362.565 973.311 359.993 972.959 357.42 972.608 354.869 972.222 352.341 971.804 349.812 971.385 348.299 970.911 347.8 970.382 351.417 969.857 354.383 969.157 356.7 968.282 359.017 967.407 359.983 966.507 359.6 965.582 359.254 964.657 358.196 963.357 356.425 961.682 354.654 960.007 351.846 959.307 348 959.582 346.481 959.752 344.207 959.678 341.178 959.359 338.148 959.041 335.474 958.656 333.156 958.204 330.837 957.752 329.985 957.411 330.6 957.182 333.437 956.952 338.118 956.411 344.644 955.559 351.17 954.708 358.118 953.722 365.489 952.604 372.859 951.485 379.23 950.411 384.6 949.382 389.225 942.265 393.875 935.248 398.55 928.332 403.225 921.415 407.775 915.298 412.2 909.982 398.975 911.244 386.975 912.619 376.2 914.107 365.425 915.594 357.825 916.819 353.4 917.782 353.751 916.522 355.894 915.263 359.83 914.004 363.765 912.745 367.79 911.441 371.904 910.093 376.017 908.745 378.516 907.307 379.4 905.782 379.9 904.669 380.65 903.594 381.65 902.557 382.65 901.519 382.7 900.594 381.8 899.782 381.29 899.521 380.043 899.331 378.059 899.211 376.075 899.091 374.014 899.005 371.874 898.952 369.735 898.899 368.177 898.842 367.2 898.782 367.442 898.15 369.008 897.25 371.9 896.082 374.792 894.913 378.158 893.663 382 892.332 385.842 891 389.308 889.775 392.4 888.657 395.492 887.538 397.358 886.713 398 886.182 398.659 885.408 398.274 884.845 396.844 884.493 395.415 884.141 393.785 883.845 391.956 883.604 390.126 883.363 388.941 883.022 388.4 882.582 388.344 882.068 389.706 881.483 392.484 880.825 395.263 880.168 398.593 879.52 402.475 878.882 406.357 878.243 409.924 877.695 413.178 877.238 416.432 876.781 418.506 876.495 419.4 876.382 423.008 875.907 426.942 875.557 431.2 875.332 435.458 875.107 439.992 874.857 444.8 874.582 446.637 872.832 448.262 871.332 449.675 870.082 451.087 868.832 452.062 868.132 452.6 867.982L449.4 874.182C451.8 874.015 454.4 873.948 457.2 873.982 462.037 869.207 466.012 864.657 469.125 860.332 472.237 856.007 474.262 853.557 475.2 852.982Z" fill="url(#fill1)" fill-rule="evenodd"/><text fill="#000000" fill-opacity="0" font-family="Arial,Arial_MSFontService,sans-serif" font-size="201.821" x="330.407" y="1029.57">RAD</text></g></svg>